<svg xmlns="http://www.w3.org/2000/svg" width="900" height="900" fill="none"><circle cx="450" cy="450" r="347" stroke="#000" stroke-width="6" opacity=".8"/><path stroke="#000" stroke-width="5" d="M677.5 450c0 125.645-101.855 227.5-227.5 227.5S222.5 575.645 222.5 450 324.355 222.5 450 222.5 677.5 324.355 677.5 450Z"/><path fill="#000" d="M486.48 312.84a121.56 121.56 0 0 0-1.82 13.26c-.173 4.16-.26 9.533-.26 16.12v96.46c0 23.053-6.673 41.513-20.02 55.38-6.587 6.587-14.907 11.7-24.96 15.34-10.053 3.467-21.407 5.2-34.06 5.2-12.827 0-24.267-1.733-34.32-5.2-10.053-3.64-18.373-8.927-24.96-15.86-12.827-13.347-19.24-31.633-19.24-54.86v-95.94c0-6.587-.173-12.047-.52-16.38a89.682 89.682 0 0 0-1.56-13.52h24.44c-.867 4.16-1.473 8.493-1.82 13-.173 4.333-.26 9.967-.26 16.9v95.16c0 18.893 5.027 33.453 15.08 43.68 10.227 10.053 24.7 15.08 43.42 15.08 10.053 0 18.893-1.473 26.52-4.42 7.8-3.12 14.127-7.453 18.98-13 4.16-5.027 7.367-11.093 9.62-18.2 2.253-7.107 3.38-14.82 3.38-23.14v-95.16c0-6.587-.173-12.047-.52-16.38a89.682 89.682 0 0 0-1.56-13.52h24.44Z"/><path fill="#000" d="M553.42 460c-1.907-5.547-3.727-9.967-5.46-13.26-1.733-3.293-3.987-6.5-6.76-9.62-10.573-12.48-25.567-18.72-44.98-18.72-10.573 0-20.107 1.993-28.6 5.98-8.32 3.813-15.513 9.36-21.58 16.64-5.893 7.28-10.487 16.12-13.78 26.52-3.12 10.227-4.68 21.84-4.68 34.84 0 12.827 1.56 24.44 4.68 34.84 3.293 10.4 7.887 19.24 13.78 26.52 6.067 7.28 13.347 12.913 21.84 16.9 8.493 3.987 17.94 5.98 28.34 5.98 10.4 0 19.76-1.82 28.08-5.46 8.32-3.813 15.167-9.273 20.54-16.38 2.773-3.813 4.853-7.54 6.24-11.18 1.56-3.813 2.947-8.753 4.16-14.82l21.58 5.2c-2.253 7.627-4.42 13.693-6.5 18.2-1.907 4.333-4.42 8.58-7.54 12.74-7.28 9.88-16.64 17.42-28.08 22.62-11.44 5.027-24.527 7.54-39.26 7.54-12.48 0-23.92-1.907-34.32-5.72-10.227-3.813-19.067-9.533-26.52-17.16-9.187-9.187-16.207-20.54-21.06-34.06-4.68-13.693-7.02-28.687-7.02-44.98 0-16.813 2.513-32.067 7.54-45.76 5.027-13.867 12.393-25.567 22.1-35.1 15.253-14.733 35.1-22.1 59.54-22.1 24.787 0 44.2 7.02 58.24 21.06 2.253 2.253 4.247 4.507 5.98 6.76 1.907 2.08 3.64 4.42 5.2 7.02 1.56 2.427 3.033 5.2 4.42 8.32 1.56 3.12 3.12 6.673 4.68 10.66l-20.8 5.98ZM737.051 578.541a29.458 29.458 0 0 0-2.916-1.483c-1.039-.42-2.4-.938-4.083-1.553l-18.671-6.826c-5.47-2-9.113-5.081-10.931-9.244-1.782-4.15-1.615-9.117.5-14.902 1.077-2.946 2.477-5.415 4.199-7.409 1.688-2.006 3.59-3.458 5.706-4.353 3.802-1.592 8.315-1.432 13.539.478l18.566 6.788c1.648.602 3.028 1.067 4.141 1.395 1.135.375 2.208.648 3.219.818l-2.866 7.837a25.718 25.718 0 0 0-2.863-1.464c-1.074-.433-2.47-.963-4.188-1.591l-18.566-6.788c-3.577-1.308-6.604-1.401-9.081-.279-2.49 1.157-4.388 3.523-5.696 7.1-1.295 3.541-1.357 6.539-.188 8.994 1.17 2.455 3.56 4.342 7.172 5.663l18.513 6.769c1.683.615 3.063 1.08 4.141 1.394 1.1.363 2.173.636 3.218.819l-2.865 7.837ZM671.57 604.128c1.079.11 2.147.168 3.204.175 1.037.038 2.295.04 3.775.006l26.134-.54c1.006.019 2.177.054 3.514.106 1.337.052 2.738.144 4.201.276l-.426-.27a1.45 1.45 0 0 1-.408-.192 3.862 3.862 0 0 1-.645-.343 17.983 17.983 0 0 1-1.053-.535l-.899-.57a14.164 14.164 0 0 1-1.118-.642 16.21 16.21 0 0 1-1.165-.672 14.745 14.745 0 0 1-1.023-.582l-15.514-9.834a88.334 88.334 0 0 0-4.175-2.514 38.94 38.94 0 0 0-3.159-1.605l4.377-6.906c.708.626 1.626 1.34 2.753 2.143a97.37 97.37 0 0 0 4.149 2.763l24.406 15.47c1.23.78 2.322 1.428 3.276 1.945a27.179 27.179 0 0 0 3.065 1.545l-4.677 7.378c-.739-.159-1.643-.268-2.711-.326-1.036-.038-2.414-.027-4.131.033l-25.606.544a70.36 70.36 0 0 1-4.149-.045 93.244 93.244 0 0 1-4.244-.104c.513.237 1.063.519 1.651.848l1.762.984c.62.349 1.223.687 1.81 1.015l1.656 1.049 15.892 10.074c1.419.9 2.653 1.638 3.702 2.214a24.665 24.665 0 0 0 3.065 1.545l-4.377 6.906a34.192 34.192 0 0 0-2.676-2.16 137.751 137.751 0 0 0-3.612-2.356l-25.02-15.86a129.382 129.382 0 0 0-3.483-2.142 25.949 25.949 0 0 0-2.859-1.348l4.738-7.473ZM681.038 663.561l-1.024-1.208c-.339-.349-.705-.724-1.099-1.124-.395-.399-.831-.836-1.309-1.309l-1.676-1.486-22.545-19.986a122.626 122.626 0 0 0-3.096-2.669 29.766 29.766 0 0 0-2.607-1.787l5.646-6.37a45.284 45.284 0 0 0 2.124 2.332c.761.774 1.756 1.706 2.985 2.795l22.545 19.986a39.853 39.853 0 0 0 1.713 1.444c.503.446.963.828 1.378 1.147.444.343.873.648 1.285.914.416.319.858.636 1.327.952l-5.647 6.369ZM624.361 665.983a114.243 114.243 0 0 0-2.557-2.971 37.546 37.546 0 0 0-2.456-2.327l6.487-5.424a28.463 28.463 0 0 0 1.897 2.793 58.275 58.275 0 0 0 2.429 3.079l19.614 23.457 5.799-4.85a73.208 73.208 0 0 0 3.279-2.887 27.298 27.298 0 0 0 2.355-2.335l4.814 5.757c-.869.532-1.8 1.165-2.793 1.898-.969.761-2.07 1.657-3.301 2.687l-17.013 14.225-2.062 1.724a44.037 44.037 0 0 1-1.596 1.408c-.463.436-.897.848-1.303 1.236-.382.416-.749.821-1.102 1.213l-4.814-5.757a30.518 30.518 0 0 0 2.8-1.976c.965-.709 2.22-1.71 3.767-3.003l5.37-4.491-19.614-23.456ZM566.147 694.575a41.038 41.038 0 0 0 2.853-1.208c.931-.477 2.146-1.134 3.645-1.972l15.256-8.517a1338.483 1338.483 0 0 0 3.471-1.938 22.69 22.69 0 0 1 1.342-.813c.406-.269.844-.557 1.315-.862.415 1.05.854 2.067 1.317 3.048.463.982 1.094 2.19 1.895 3.624l14.768 26.453a50.988 50.988 0 0 0 1.9 3.172 33.592 33.592 0 0 0 2.013 2.917c-.507.24-.982.463-1.424.667a21.38 21.38 0 0 1-1.347.688l-1.565.873-1.956 1.092-14.766 8.244a106.832 106.832 0 0 0-3.2 1.851 86.23 86.23 0 0 0-2.917 2.013l-3.603-6.454c.493-.19.976-.396 1.451-.618.493-.189.984-.421 1.473-.694.507-.24 1.054-.524 1.64-.852a36.94 36.94 0 0 0 1.935-1.015l14.082-7.862-5.624-10.073-11.881 6.634c-1.272.71-2.371 1.345-3.298 1.905a67.612 67.612 0 0 0-2.868 1.986l-3.576-6.406a26.505 26.505 0 0 0 1.5-.644c.46-.172.935-.394 1.424-.667.507-.24 1.054-.524 1.64-.852a38.445 38.445 0 0 0 1.984-1.043l11.93-6.661-6.442-11.539-14.669 8.189a109.693 109.693 0 0 0-3.347 1.933 66.422 66.422 0 0 0-2.721 1.904l-3.63-6.503ZM561.77 737.798c.479 1.493.908 2.708 1.287 3.645.356.984.81 2.034 1.365 3.15-.545.135-1.054.259-1.527.372-.463.149-.948.285-1.457.409l-1.653.531-2.186.702-9.651 3.099c-3.341 1.072-6.269 1.601-8.784 1.585a15.423 15.423 0 0 1-7.119-1.655c-2.548-1.221-4.759-3.04-6.633-5.457-1.863-2.382-3.354-5.315-4.472-8.798-2.351-7.323-2.069-13.648.847-18.976a16.702 16.702 0 0 1 4.789-5.419c1.964-1.454 4.528-2.689 7.691-3.705l9.704-3.116 2.133-.685 1.653-.531c.486-.195.978-.372 1.476-.532.451-.184.937-.379 1.459-.586.1.556.212 1.088.336 1.597a25.205 25.205 0 0 0 .848 3.375c.17.651.386 1.385.649 2.203l9.245 28.792Zm-25.003-24.38c-2.203.708-3.949 1.562-5.235 2.563-1.321 1.013-2.357 2.306-3.106 3.88-.846 1.762-1.27 3.74-1.27 5.936-.025 2.243.368 4.627 1.178 7.151 1.621 5.047 4.068 8.457 7.343 10.229a10.033 10.033 0 0 0 4.679 1.202c1.618.03 3.599-.332 5.945-1.085l8.531-2.739-9.587-29.859-8.478 2.722ZM461.66 765.055l.145-1.577c.013-.487.024-1.011.034-1.572.009-.561.015-1.178.019-1.851l-.112-2.238-1.51-30.09c-.082-1.64-.169-3-.26-4.08a29.917 29.917 0 0 0-.549-3.112l8.501-.427a45.033 45.033 0 0 0-.178 3.149c-.02 1.085.011 2.448.093 4.089l1.509 30.09c.043.857.099 1.602.168 2.234.034.671.083 1.267.146 1.787.065.558.147 1.077.246 1.558.064.52.147 1.058.249 1.613l-8.501.427ZM411.32 717.968c.374 1.019.79 2.005 1.246 2.958.42.948.969 2.081 1.648 3.397l11.93 23.258c.424.912.905 1.98 1.444 3.205a83.028 83.028 0 0 1 1.592 3.898l.056-.501a1.441 1.441 0 0 1-.006-.452 3.816 3.816 0 0 1 .026-.73c-.008-.263-.002-.657.019-1.181l.119-1.057c.009-.412.038-.841.088-1.286.013-.45.044-.897.094-1.342.013-.449.038-.841.075-1.175l2.047-18.254c.213-1.892.356-3.51.432-4.854a39.11 39.11 0 0 0 .059-3.543l8.125.911c-.252.911-.492 2.048-.721 3.413a96.46 96.46 0 0 0-.666 4.94l-3.221 28.716a56.775 56.775 0 0 0-.313 3.797 27.16 27.16 0 0 0-.046 3.432l-8.682-.973c-.181-.734-.479-1.594-.894-2.58-.42-.949-1.033-2.182-1.839-3.7l-11.702-22.782a69.52 69.52 0 0 1-1.777-3.749 93.682 93.682 0 0 1-1.765-3.861 24 24 0 0 1-.039 1.855l-.113 2.016-.12 2.072-.219 1.947-2.096 18.699a70.114 70.114 0 0 0-.37 4.298 24.604 24.604 0 0 0-.046 3.432l-8.126-.911c.311-1.092.568-2.209.771-3.351.166-1.146.345-2.573.536-4.279l3.301-29.44c.175-1.558.308-2.914.4-4.068a25.68 25.68 0 0 0-.04-3.161l8.793.986ZM316.231 701.011c1.308-1.621 2.478-2.894 3.512-3.82a16.667 16.667 0 0 1 3.37-2.285c2.279-1.141 4.824-1.649 7.635-1.524 2.778.11 5.715.866 8.81 2.266 5.578 2.525 9.209 6.136 10.895 10.832.956 2.687 1.286 5.623.992 8.809-.295 3.186-1.189 6.429-2.682 9.728-1.539 3.401-3.458 6.282-5.756 8.643-2.298 2.362-4.855 4.073-7.671 5.134-2.239.872-4.648 1.216-7.229 1.031-2.595-.15-5.168-.802-7.719-1.957-2.007-.908-3.683-1.913-5.029-3.014a17.566 17.566 0 0 1-3.658-3.868c-1.667-2.476-2.63-5.145-2.891-8.009a12.897 12.897 0 0 1-.027-1.979c.008-.652.083-1.54.223-2.665l7.83 1.577c-.133 1.292-.186 2.313-.157 3.064-.005.735.117 1.507.365 2.316.781 2.894 2.786 5.072 6.017 6.535 1.803.816 3.59 1.214 5.36 1.196 1.736-.034 3.415-.483 5.036-1.347 1.571-.846 3.052-2.082 4.443-3.706 1.341-1.606 2.543-3.582 3.605-5.929 1.062-2.347 1.745-4.578 2.047-6.695.303-2.117.261-4.062-.125-5.835a11.837 11.837 0 0 0-2.311-4.673c-1.121-1.327-2.582-2.398-4.385-3.214-1.802-.816-3.564-1.224-5.285-1.224-1.771.018-3.333.438-4.688 1.259a9.701 9.701 0 0 0-1.898 1.477c-.531.538-1.168 1.356-1.91 2.455l-6.719-4.578ZM284.592 663.253c-.336.586-.737 1.611-1.204 3.073-.497 1.44-1.073 3.4-1.728 5.88-.542 2.008-.905 3.708-1.088 5.099-.206 1.422-.243 2.643-.11 3.664.102 1 .397 1.862.884 2.588.487.725 1.168 1.407 2.042 2.046l6.739 4.92 6.737-9.226c.991-1.357 1.79-2.483 2.399-3.38a32.08 32.08 0 0 0 1.565-2.809l6.739 4.921c-.413.438-.777.842-1.093 1.212-.369.378-.733.782-1.094 1.213-.36.43-.727.901-1.102 1.414-.404.49-.86 1.082-1.366 1.776l-17.8 24.377a32.89 32.89 0 0 0-1.143 1.661 25.685 25.685 0 0 0-1.834 2.891 42.12 42.12 0 0 0-.954 1.592 114.412 114.412 0 0 0-2.569-2.084l-3.121-2.279-10.854-7.926c-3.468-2.532-5.542-5.294-6.222-8.287-.681-2.993.08-5.998 2.282-9.013 2.135-2.924 4.544-4.609 7.227-5.054 1.117-.201 2.17-.218 3.158-.052.957.145 2.217.509 3.777 1.094-.547-.769-.945-1.522-1.194-2.258-.248-.736-.339-1.751-.274-3.043.066-1.293.309-2.987.73-5.084.422-2.096 1.043-4.878 1.865-8.346.064-.277.163-.666.299-1.169l.27-1.605c.097-.576.206-1.167.325-1.774l.25-1.481 7.462 5.449Zm-7.32 25.788a8.7 8.7 0 0 0-2.694-1.343c-.974-.249-1.905-.304-2.791-.166-1.67.26-3.121 1.235-4.354 2.923-2.4 3.287-1.745 6.284 1.963 8.992l9.272 6.77 7.694-10.538-9.09-6.638ZM226.016 670.017l1.269-.948a150.78 150.78 0 0 0 2.578-2.253l1.586-1.581 21.339-21.269a119.115 119.115 0 0 0 2.856-2.925 30.061 30.061 0 0 0 1.945-2.492l6.009 6.029a44.53 44.53 0 0 0-2.459 1.976c-.819.711-1.811 1.647-2.974 2.807l-21.339 21.268a37.734 37.734 0 0 0-1.547 1.621 25.1 25.1 0 0 0-1.23 1.305c-.37.421-.701.83-.992 1.225-.344.396-.688.818-1.032 1.266l-6.009-6.029ZM229.259 627.343c.956-.843 1.665-1.549 2.125-2.12.409-.579.714-1.266.915-2.064.386-1.303.395-2.677.027-4.121-.39-1.475-1.127-2.949-2.211-4.422-1.659-2.255-3.419-3.672-5.281-4.249-1.914-.585-3.727-.247-5.441 1.014-.933.686-1.605 1.505-2.017 2.457a5.134 5.134 0 0 0-.474 2.852c.063.463.145.89.246 1.279.079.359.246.839.502 1.438.204.592.532 1.416.985 2.473a491.828 491.828 0 0 0 1.832 4.285c.848 1.971 1.452 3.612 1.814 4.922a14.57 14.57 0 0 1 .445 3.913c-.1 3.643-1.684 6.593-4.752 8.85-1.563 1.15-3.198 1.889-4.903 2.217-1.736.35-3.464.301-5.185-.148-1.743-.479-3.43-1.324-5.062-2.533-1.631-1.21-3.166-2.792-4.604-4.747-1.903-2.586-3.16-5.114-3.772-7.584-.642-2.447-.621-4.78.064-6.999.331-1.125.777-2.125 1.338-3.001.508-.884 1.264-1.904 2.268-3.059l5.513 5.886c-.671.725-1.166 1.344-1.485 1.857-.318.512-.559 1.13-.722 1.852-.559 2.265.102 4.676 1.983 7.232 1.46 1.984 3.084 3.246 4.871 3.785 1.787.539 3.418.267 4.891-.817 1.834-1.35 2.45-3.379 1.848-6.087a19.808 19.808 0 0 1-.227-.876 41.37 41.37 0 0 1-.46-1.192 68.214 68.214 0 0 0-.81-2.046c-.38-.832-.9-1.979-1.559-3.441-.936-2.092-1.599-3.875-1.989-5.35-.42-1.452-.643-2.795-.669-4.027.011-2.001.427-3.767 1.248-5.298.79-1.508 2.042-2.893 3.756-4.154 3.218-2.367 6.471-3.301 9.759-2.8 4.033.694 7.82 3.447 11.36 8.258 1.372 1.864 2.467 3.794 3.285 5.787.818 1.994 1.264 3.798 1.339 5.411.102 2.659-.638 5.244-2.222 7.753a12.517 12.517 0 0 1-1.168 1.624c-.475.489-1.124 1.151-1.945 1.987l-5.456-5.997ZM172.466 595.165l1.491-.535a166.107 166.107 0 0 0 3.123-1.401l1.98-1.048 26.626-14.098a123.106 123.106 0 0 0 3.587-1.962 30.038 30.038 0 0 0 2.588-1.814l3.983 7.523c-.994.357-1.97.747-2.929 1.17-.992.441-2.213 1.045-3.665 1.814l-26.626 14.098c-.759.402-1.41.767-1.954 1.097-.594.315-1.113.611-1.557.888-.478.295-.913.589-1.307.883a26.1 26.1 0 0 0-1.357.908l-3.983-7.523ZM187.639 554.338c1.163-.521 2.049-.986 2.658-1.394.562-.432 1.057-.998 1.486-1.7.754-1.13 1.17-2.44 1.247-3.928.065-1.524-.202-3.15-.801-4.879-.916-2.646-2.177-4.52-3.784-5.623-1.654-1.126-3.487-1.341-5.498-.644-1.093.378-1.978.961-2.654 1.748a5.143 5.143 0 0 0-1.298 2.583c-.077.462-.125.893-.144 1.295-.031.366-.013.874.053 1.522.019.626.089 1.511.208 2.654.107 1.109.267 2.654.479 4.635.226 2.134.317 3.88.274 5.239a14.575 14.575 0 0 1-.735 3.869c-1.176 3.449-3.563 5.797-7.161 7.043-1.834.636-3.615.857-5.341.665a11.366 11.366 0 0 1-4.907-1.679c-1.523-.974-2.884-2.28-4.084-3.919-1.199-1.639-2.196-3.605-2.99-5.898-1.051-3.034-1.503-5.821-1.355-8.361.112-2.528.824-4.75 2.136-6.666.65-.976 1.372-1.799 2.167-2.47.748-.693 1.772-1.443 3.073-2.249l3.521 7.255c-.857.494-1.513.939-1.968 1.334-.456.395-.869.913-1.24 1.555-1.204 1.998-1.288 4.496-.249 7.494.806 2.329 1.983 4.015 3.53 5.06 1.547 1.044 3.185 1.267 4.913.669 2.152-.746 3.342-2.501 3.57-5.266.008-.319.022-.621.042-.904a41.915 41.915 0 0 1-.085-1.274 68.807 68.807 0 0 0-.168-2.194c-.116-.908-.273-2.158-.468-3.749-.275-2.276-.379-4.175-.315-5.699.03-1.512.215-2.86.556-4.045.603-1.908 1.523-3.471 2.761-4.69 1.202-1.206 2.808-2.157 4.819-2.854 3.775-1.307 7.158-1.234 10.15.219 3.647 1.858 6.447 5.609 8.402 11.254.757 2.187 1.231 4.354 1.422 6.501.19 2.146.082 4.001-.325 5.564-.691 2.57-2.164 4.819-4.42 6.746-.514.455-1.047.856-1.598 1.205-.598.326-1.413.766-2.446 1.322l-3.433-7.346ZM168.827 317.497a29.697 29.697 0 0 0 2.863 1.584c1.024.455 2.366 1.02 4.027 1.693l18.423 7.47c5.398 2.188 8.932 5.394 10.604 9.617 1.637 4.209 1.298 9.167-1.016 14.876-1.179 2.906-2.663 5.326-4.454 7.258-1.756 1.947-3.707 3.332-5.853 4.153-3.855 1.459-8.359 1.143-13.515-.947l-18.319-7.427c-1.626-.66-2.989-1.172-4.09-1.538a22.023 22.023 0 0 0-3.188-.93l3.135-7.733a25.587 25.587 0 0 0 2.811 1.563c1.058.47 2.435 1.048 4.13 1.735l18.32 7.428c3.529 1.431 6.551 1.629 9.065.594 2.529-1.07 4.508-3.369 5.939-6.898 1.417-3.495 1.584-6.489.5-8.983-1.084-2.494-3.407-4.463-6.971-5.908l-18.268-7.407c-1.66-.673-3.024-1.185-4.09-1.537-1.086-.4-2.149-.71-3.188-.93l3.135-7.733ZM235.157 294.196a33.395 33.395 0 0 0-3.197-.286 64.433 64.433 0 0 0-3.773-.137l-26.137-.367a173.64 173.64 0 0 1-3.507-.227 82.858 82.858 0 0 1-4.189-.421l.416.284c.113.032.247.101.401.207.175.074.386.196.633.364.237.117.581.307 1.034.571l.878.601c.36.201.725.428 1.095.68.391.223.771.46 1.141.713.391.222.725.428 1.003.617l15.163 10.366a89.993 89.993 0 0 0 4.085 2.657 39.492 39.492 0 0 0 3.102 1.714l-4.614 6.749c-.686-.65-1.578-1.395-2.676-2.236a95.987 95.987 0 0 0-4.052-2.906l-23.854-16.307a56.414 56.414 0 0 0-3.207-2.057 27.162 27.162 0 0 0-3.01-1.65l4.93-7.212c.733.185 1.633.325 2.698.42 1.035.074 2.412.111 4.131.11l25.609.345a70.2 70.2 0 0 1 4.145.188c1.542.059 2.955.143 4.237.251a24.37 24.37 0 0 1-1.62-.904l-1.727-1.045c-.607-.37-1.198-.729-1.774-1.077l-1.618-1.106-15.534-10.619a70.082 70.082 0 0 0-3.622-2.341 24.63 24.63 0 0 0-3.01-1.651l4.614-6.749a34.031 34.031 0 0 0 2.599 2.251c.934.684 2.11 1.511 3.528 2.48l24.456 16.718c1.294.885 2.429 1.639 3.406 2.261a25.62 25.62 0 0 0 2.81 1.446l-4.993 7.305ZM227.754 234.47l.982 1.243a148.082 148.082 0 0 0 2.322 2.515l1.624 1.544 21.838 20.755a125.514 125.514 0 0 0 3.002 2.775 29.822 29.822 0 0 0 2.543 1.876l-5.864 6.17a44.434 44.434 0 0 0-2.041-2.403c-.734-.8-1.696-1.766-2.886-2.898l-21.839-20.755a38.604 38.604 0 0 0-1.662-1.502 25.195 25.195 0 0 0-1.338-1.194 18.134 18.134 0 0 0-1.252-.959 27.301 27.301 0 0 0-1.293-.997l5.864-6.17ZM284.481 234.015a115.17 115.17 0 0 0 2.453 3.058 36.972 36.972 0 0 0 2.374 2.41l-6.671 5.196a28.365 28.365 0 0 0-1.8-2.857c-.606-.9-1.38-1.954-2.32-3.162l-18.789-24.122-5.964 4.646a72.863 72.863 0 0 0-3.377 2.772 27.33 27.33 0 0 0-2.435 2.251l-4.611-5.92a39.174 39.174 0 0 0 2.857-1.8c.995-.727 2.126-1.584 3.392-2.571l17.496-13.626 2.12-1.652a45.457 45.457 0 0 1 1.645-1.352c.477-.419.926-.816 1.345-1.189.396-.403.777-.795 1.143-1.175l4.611 5.92a31.13 31.13 0 0 0-2.867 1.878c-.988.675-2.278 1.632-3.868 2.871l-5.523 4.302 18.789 24.122ZM343.652 207.459c-.965.327-1.929.697-2.893 1.108-.947.445-2.184 1.059-3.712 1.844l-15.542 7.983-1.992 1.023-1.544.793c-.448.273-.905.528-1.37.767-.414.255-.862.527-1.343.816a52.234 52.234 0 0 0-1.211-3.093c-.428-.997-1.018-2.226-1.768-3.687l-13.843-26.949a51.01 51.01 0 0 0-1.788-3.236 33.731 33.731 0 0 0-1.911-2.985c.515-.223.997-.428 1.446-.617.432-.222.889-.435 1.371-.641l1.594-.819 1.992-1.023 15.044-7.727a106.807 106.807 0 0 0 3.262-1.739 84.612 84.612 0 0 0 2.984-1.911l3.378 6.576c-.499.172-.99.361-1.472.566a11.53 11.53 0 0 0-1.495.643c-.516.223-1.072.487-1.67.794-.581.257-1.238.573-1.968.949l-14.346 7.369 5.271 10.261 12.104-6.218a111.829 111.829 0 0 0 3.362-1.789 67.492 67.492 0 0 0 2.935-1.886l3.352 6.526c-.533.189-1.04.387-1.522.592-.466.156-.947.361-1.446.617-.515.223-1.071.488-1.669.795-.582.257-1.254.581-2.018.973l-12.154 6.244 6.038 11.755 14.944-7.676a105.982 105.982 0 0 0 3.411-1.815 66.97 66.97 0 0 0 2.786-1.808l3.403 6.625ZM349.525 164.413c-.427-1.509-.814-2.738-1.161-3.687a30.134 30.134 0 0 0-1.254-3.195c.549-.117 1.062-.224 1.539-.32.467-.132.957-.252 1.47-.358l1.67-.473 2.21-.626 9.752-2.762c3.376-.957 6.321-1.383 8.833-1.28 2.503.067 4.855.701 7.058 1.901 2.504 1.308 4.651 3.203 6.44 5.684 1.779 2.445 3.167 5.427 4.164 8.948 2.096 7.399 1.595 13.711-1.504 18.934a16.708 16.708 0 0 1-4.974 5.25c-2.013 1.386-4.618 2.531-7.815 3.436l-9.807 2.778-2.155.61-1.67.473c-.493.179-.991.339-1.494.482-.456.168-.949.346-1.478.535a25.765 25.765 0 0 0-.281-1.609 24.888 24.888 0 0 0-.296-1.662 26.402 26.402 0 0 0-.434-1.739 41.807 41.807 0 0 0-.572-2.225l-8.241-29.095Zm24.142 25.232c2.227-.631 4.001-1.424 5.321-2.38 1.356-.966 2.435-2.223 3.239-3.77.907-1.731 1.398-3.694 1.475-5.889.103-2.24-.207-4.636-.93-7.186-1.444-5.101-3.772-8.593-6.983-10.478a10.038 10.038 0 0 0-4.636-1.364c-1.615-.086-3.608.207-5.978.879l-8.621 2.441 8.546 30.173 8.567-2.426ZM450.519 140.643l-.2 1.572a159.6 159.6 0 0 0-.171 3.419l.035 2.239.465 30.125c.025 1.642.065 3.004.119 4.086.091 1.045.238 2.088.44 3.13l-8.511.131c.134-1.047.229-2.094.288-3.14.058-1.084.074-2.447.049-4.09l-.465-30.124a39.534 39.534 0 0 0-.091-2.239 24.84 24.84 0 0 0-.084-1.791 18.459 18.459 0 0 0-.192-1.565 26.625 26.625 0 0 0-.193-1.621l8.511-.132ZM499.197 189.447a33.916 33.916 0 0 0-1.143-2.999 64.907 64.907 0 0 0-1.529-3.452l-11.117-23.658c-.392-.926-.836-2.01-1.332-3.253a83.349 83.349 0 0 1-1.456-3.951l-.073.499a1.45 1.45 0 0 1-.01.451c.01.191-.007.433-.051.729-.001.264-.021.657-.06 1.18l-.156 1.052a14.04 14.04 0 0 1-.132 1.283c-.028.448-.075.894-.141 1.337-.028.449-.067.84-.116 1.172l-2.678 18.172a89.226 89.226 0 0 0-.6 4.836 39.19 39.19 0 0 0-.182 3.539l-8.089-1.192c.284-.902.564-2.03.839-3.386.281-1.393.56-3.031.838-4.914l4.214-28.588c.212-1.44.36-2.701.444-3.783a26.99 26.99 0 0 0 .166-3.429l8.642 1.274c.156.74.424 1.61.805 2.609.386.963.956 2.217 1.709 3.762l10.905 23.174a70.086 70.086 0 0 1 1.647 3.809 92.87 92.87 0 0 1 1.629 3.919 24.35 24.35 0 0 1 .104-1.852l.183-2.011.191-2.066.286-1.939 2.744-18.615c.245-1.662.418-3.09.518-4.282.137-1.188.193-2.331.166-3.429l8.088 1.192a34.27 34.27 0 0 0-.886 3.323 141.36 141.36 0 0 0-.684 4.257l-4.32 29.308a131.613 131.613 0 0 0-.541 4.052 25.791 25.791 0 0 0-.069 3.16l-8.753-1.29ZM593.64 209.69c-1.363 1.575-2.577 2.807-3.642 3.696a16.675 16.675 0 0 1-3.447 2.168c-2.317 1.061-4.878 1.48-7.684 1.257-2.772-.206-5.681-1.063-8.725-2.57-5.487-2.716-8.992-6.451-10.513-11.203-.862-2.718-1.091-5.664-.686-8.838.405-3.174 1.41-6.383 3.017-9.629 1.657-3.346 3.674-6.159 6.052-8.439 2.379-2.28 4.994-3.901 7.845-4.864 2.268-.794 4.688-1.054 7.26-.78 2.589.24 5.138.981 7.647 2.224 1.974.977 3.615 2.039 4.921 3.186a17.586 17.586 0 0 1 3.522 3.993c1.58 2.531 2.45 5.233 2.612 8.104.036.684.022 1.344-.042 1.978-.031.652-.136 1.537-.315 2.656l-7.771-1.847c.178-1.286.266-2.305.263-3.057a7.709 7.709 0 0 0-.285-2.328c-.679-2.919-2.608-5.165-5.787-6.739-1.773-.877-3.544-1.338-5.314-1.381-1.737-.027-3.43.364-5.08 1.172-1.599.791-3.122 1.974-4.569 3.549-1.396 1.559-2.666 3.492-3.809 5.801-1.142 2.308-1.902 4.515-2.277 6.62-.376 2.106-.402 4.051-.077 5.836a11.835 11.835 0 0 0 2.147 4.75c1.074 1.365 2.498 2.486 4.271 3.364 1.773.878 3.52 1.347 5.24 1.407 1.77.043 3.346-.322 4.729-1.096a9.749 9.749 0 0 0 1.948-1.41c.548-.52 1.213-1.316 1.994-2.387l6.555 4.807ZM623.951 248.523c.357-.575.793-1.585 1.31-3.03.547-1.422 1.19-3.36 1.931-5.816.611-1.989 1.033-3.675 1.265-5.059.255-1.413.334-2.632.237-3.658-.068-1.002-.333-1.874-.795-2.616-.461-.742-1.118-1.447-1.97-2.116l-6.564-5.151-7.053 8.987a124.994 124.994 0 0 0-2.514 3.295 32.288 32.288 0 0 0-1.662 2.753l-6.564-5.151a36.06 36.06 0 0 0 1.135-1.174c.381-.365.759-.757 1.134-1.174.375-.418.759-.876 1.151-1.375.421-.477.896-1.052 1.427-1.728l18.634-23.745c.461-.588.861-1.128 1.2-1.621a25.674 25.674 0 0 0 1.933-2.825c.316-.464.653-.983 1.009-1.558a116.7 116.7 0 0 0 2.495 2.172l3.04 2.386 10.573 8.297c3.378 2.65 5.354 5.483 5.931 8.498.576 3.015-.288 5.991-2.593 8.928-2.236 2.849-4.702 4.449-7.398 4.801-1.124.162-2.176.143-3.158-.058-.952-.178-2.198-.586-3.737-1.225.52.788.892 1.555 1.115 2.299.222.744.279 1.761.168 3.051-.11 1.289-.412 2.974-.906 5.055-.493 2.08-1.211 4.839-2.153 8.276-.073.275-.186.661-.339 1.158l-.326 1.595a63.643 63.643 0 0 1-.386 1.761l-.301 1.472-7.269-5.704Zm8.21-25.519a8.721 8.721 0 0 0 2.646 1.436c.965.282 1.893.37 2.784.262 1.677-.202 3.161-1.126 4.452-2.77 2.512-3.202 1.962-6.22-1.65-9.055l-9.032-7.087-8.055 10.265 8.855 6.949ZM682.726 243.794l-1.3.903a157.01 157.01 0 0 0-2.655 2.162l-1.64 1.526-22.064 20.515a123.362 123.362 0 0 0-2.955 2.825 30.048 30.048 0 0 0-2.03 2.423l-5.796-6.234a44.452 44.452 0 0 0 2.525-1.889c.844-.683 1.867-1.583 3.07-2.702l22.064-20.516a38.315 38.315 0 0 0 1.602-1.566c.492-.458.917-.878 1.274-1.261.385-.409.73-.806 1.034-1.191.358-.383.716-.793 1.075-1.229l5.796 6.234ZM678.006 286.33c-.985.808-1.717 1.49-2.197 2.044-.429.565-.757 1.241-.986 2.031-.431 1.289-.487 2.662-.17 4.118.338 1.487 1.024 2.986 2.056 4.496 1.58 2.312 3.291 3.788 5.131 4.43 1.892.651 3.717.376 5.473-.825.956-.653 1.656-1.449 2.1-2.386a5.129 5.129 0 0 0 .573-2.833 11.096 11.096 0 0 0-.201-1.287c-.066-.362-.217-.847-.452-1.455-.183-.598-.483-1.434-.899-2.506a517.449 517.449 0 0 0-1.681-4.345c-.78-2-1.327-3.661-1.643-4.982a14.566 14.566 0 0 1-.31-3.926c.227-3.638 1.913-6.531 5.056-8.68 1.603-1.096 3.262-1.778 4.978-2.046a11.37 11.37 0 0 1 5.176.328c1.725.539 3.382 1.441 4.971 2.707 1.589 1.265 3.068 2.9 4.437 4.903 1.812 2.651 2.981 5.221 3.507 7.71.557 2.469.455 4.8-.307 6.993-.37 1.113-.85 2.097-1.441 2.953-.539.866-1.33 1.859-2.373 2.979l-5.305-6.074c.696-.702 1.212-1.303 1.548-1.804.336-.501.598-1.11.786-1.827.637-2.244.06-4.676-1.731-7.295-1.391-2.035-2.97-3.352-4.737-3.953-1.767-.6-3.406-.385-4.916.648-1.88 1.285-2.566 3.291-2.058 6.019.076.31.141.604.196.883.107.289.247.691.418 1.207.172.516.418 1.207.739 2.073.352.845.831 2.009 1.439 3.493.863 2.124 1.464 3.929 1.802 5.416.369 1.466.546 2.815.529 4.048-.08 1.999-.557 3.75-1.43 5.251-.842 1.48-2.142 2.821-3.899 4.022-3.297 2.254-6.581 3.074-9.85 2.46-4.006-.834-7.695-3.716-11.066-8.647-1.307-1.911-2.334-3.877-3.082-5.898-.749-2.021-1.132-3.839-1.151-5.454-.01-2.661.819-5.218 2.489-7.671.376-.574.784-1.102 1.224-1.583.492-.472 1.162-1.111 2.013-1.919l5.244 6.184ZM733.649 320.457l-1.508.484a143.269 143.269 0 0 0-3.17 1.291l-2.015.979-27.099 13.166c-1.477.718-2.695 1.33-3.652 1.837a29.92 29.92 0 0 0-2.65 1.723l-3.72-7.656a44.71 44.71 0 0 0 2.968-1.069c1.006-.406 2.248-.967 3.726-1.685l27.099-13.167a38.86 38.86 0 0 0 1.99-1.029 24.972 24.972 0 0 0 1.587-.833c.488-.279.933-.557 1.337-.837.454-.262.917-.549 1.388-.86l3.719 7.656ZM717.07 360.733c-1.18.481-2.082.915-2.705 1.302-.576.412-1.091.961-1.544 1.647-.793 1.103-1.253 2.398-1.382 3.883-.118 1.52.093 3.155.631 4.903.824 2.676 2.02 4.593 3.587 5.751 1.614 1.183 3.438 1.461 5.472.835 1.106-.341 2.01-.893 2.713-1.656a5.134 5.134 0 0 0 1.387-2.536c.093-.459.156-.888.189-1.289.044-.365.044-.873 0-1.524.002-.625-.036-1.512-.116-2.659a502.78 502.78 0 0 0-.318-4.648c-.152-2.141-.182-3.89-.092-5.246.126-1.367.415-2.647.868-3.841 1.295-3.407 3.762-5.671 7.401-6.791 1.856-.571 3.643-.731 5.361-.479 1.754.241 3.369.857 4.846 1.848 1.488 1.026 2.803 2.379 3.945 4.058 1.143 1.68 2.071 3.679 2.785 5.999.945 3.068 1.299 5.869 1.064 8.403-.2 2.522-.989 4.718-2.366 6.588-.683.952-1.434 1.75-2.252 2.392-.771.667-1.821 1.381-3.149 2.142l-3.266-7.373c.872-.465 1.543-.886 2.013-1.265.469-.379.9-.883 1.292-1.511 1.273-1.955 1.443-4.448.509-7.481-.725-2.355-1.843-4.081-3.352-5.179-1.51-1.098-3.139-1.377-4.888-.839-2.176.67-3.426 2.383-3.749 5.139-.02.319-.044.619-.074.902.016.307.03.733.041 1.276.011.544.042 1.277.091 2.199.085.911.198 2.165.339 3.763.195 2.284.234 4.186.116 5.706-.082 1.51-.314 2.851-.695 4.023-.669 1.886-1.643 3.416-2.922 4.591-1.243 1.164-2.882 2.059-4.915 2.686-3.818 1.175-7.197.985-10.137-.57-3.58-1.984-6.249-5.83-8.006-11.539-.682-2.212-1.08-4.394-1.196-6.546-.116-2.152.057-4.002.518-5.55.779-2.545 2.329-4.741 4.651-6.589a12.639 12.639 0 0 1 1.638-1.149c.609-.305 1.44-.717 2.491-1.236l3.176 7.46Z"/><circle cx="160" cy="450" r="10" fill="#000"/><circle cx="160" cy="450" r="10" fill="#000"/><circle cx="740" cy="450" r="10" fill="#000"/></svg>