<svg xmlns="http://www.w3.org/2000/svg" width="900" height="900" fill="none"><path stroke="#FBF1CE" stroke-width="2" d="M679 450c0 126.473-102.527 229-229 229S221 576.473 221 450s102.527-229 229-229 229 102.527 229 229Z"/><path fill="#FBF1CE" d="M486.48 312.84a121.56 121.56 0 0 0-1.82 13.26c-.173 4.16-.26 9.533-.26 16.12v96.46c0 23.053-6.673 41.513-20.02 55.38-6.587 6.587-14.907 11.7-24.96 15.34-10.053 3.467-21.407 5.2-34.06 5.2-12.827 0-24.267-1.733-34.32-5.2-10.053-3.64-18.373-8.927-24.96-15.86-12.827-13.347-19.24-31.633-19.24-54.86v-95.94c0-6.587-.173-12.047-.52-16.38a89.682 89.682 0 0 0-1.56-13.52h24.44c-.867 4.16-1.473 8.493-1.82 13-.173 4.333-.26 9.967-.26 16.9v95.16c0 18.893 5.027 33.453 15.08 43.68 10.227 10.053 24.7 15.08 43.42 15.08 10.053 0 18.893-1.473 26.52-4.42 7.8-3.12 14.127-7.453 18.98-13 4.16-5.027 7.367-11.093 9.62-18.2 2.253-7.107 3.38-14.82 3.38-23.14v-95.16c0-6.587-.173-12.047-.52-16.38a89.682 89.682 0 0 0-1.56-13.52h24.44Z"/><path fill="#FBF1CE" d="M553.42 460c-1.907-5.547-3.727-9.967-5.46-13.26-1.733-3.293-3.987-6.5-6.76-9.62-10.573-12.48-25.567-18.72-44.98-18.72-10.573 0-20.107 1.993-28.6 5.98-8.32 3.813-15.513 9.36-21.58 16.64-5.893 7.28-10.487 16.12-13.78 26.52-3.12 10.227-4.68 21.84-4.68 34.84 0 12.827 1.56 24.44 4.68 34.84 3.293 10.4 7.887 19.24 13.78 26.52 6.067 7.28 13.347 12.913 21.84 16.9 8.493 3.987 17.94 5.98 28.34 5.98 10.4 0 19.76-1.82 28.08-5.46 8.32-3.813 15.167-9.273 20.54-16.38 2.773-3.813 4.853-7.54 6.24-11.18 1.56-3.813 2.947-8.753 4.16-14.82l21.58 5.2c-2.253 7.627-4.42 13.693-6.5 18.2-1.907 4.333-4.42 8.58-7.54 12.74-7.28 9.88-16.64 17.42-28.08 22.62-11.44 5.027-24.527 7.54-39.26 7.54-12.48 0-23.92-1.907-34.32-5.72-10.227-3.813-19.067-9.533-26.52-17.16-9.187-9.187-16.207-20.54-21.06-34.06-4.68-13.693-7.02-28.687-7.02-44.98 0-16.813 2.513-32.067 7.54-45.76 5.027-13.867 12.393-25.567 22.1-35.1 15.253-14.733 35.1-22.1 59.54-22.1 24.787 0 44.2 7.02 58.24 21.06 2.253 2.253 4.247 4.507 5.98 6.76 1.907 2.08 3.64 4.42 5.2 7.02 1.56 2.427 3.033 5.2 4.42 8.32 1.56 3.12 3.12 6.673 4.68 10.66l-20.8 5.98Z"/></svg>